<svg width="83" height="34" viewBox="0 0 83 34" fill="none" xmlns="http://www.w3.org/2000/svg">
<path d="M4.5043 17.1055V20.2793H8.03945C8.67096 20.2793 9.18203 20.1621 9.57265 19.9277C9.96979 19.6868 10.1684 19.2637 10.1684 18.6582C10.1684 17.9876 9.90794 17.5449 9.38711 17.3301C8.93789 17.1803 8.36497 17.1055 7.66836 17.1055H4.5043ZM4.5043 22.6621V26.5H8.03945C8.67096 26.5 9.1625 26.4154 9.51406 26.2461C10.1521 25.9336 10.4711 25.3346 10.4711 24.4492C10.4711 23.7005 10.1618 23.1862 9.54336 22.9062C9.19831 22.75 8.71328 22.6686 8.08828 22.6621H4.5043ZM8.62539 14.6055C10.3897 14.6315 11.6397 15.1426 12.3754 16.1387C12.8181 16.7507 13.0395 17.4831 13.0395 18.3359C13.0395 19.2148 12.8181 19.9212 12.3754 20.4551C12.128 20.7546 11.7634 21.028 11.2816 21.2754C12.0173 21.5423 12.5707 21.9655 12.9418 22.5449C13.3194 23.1243 13.5082 23.8275 13.5082 24.6543C13.5082 25.5072 13.2934 26.2721 12.8637 26.9492C12.5902 27.3984 12.2484 27.776 11.8383 28.082C11.376 28.4336 10.8292 28.6745 10.1977 28.8047C9.57265 28.9349 8.89232 29 8.15664 29H1.6332V14.6055H8.62539ZM15.4426 31.041L15.7941 31.0605C16.0676 31.0736 16.328 31.0638 16.5754 31.0312C16.8228 30.9987 17.0311 30.9238 17.2004 30.8066C17.3631 30.696 17.5129 30.4648 17.6496 30.1133C17.7928 29.7617 17.8514 29.5469 17.8254 29.4688L13.9191 18.3555H17.0148L19.3391 26.207L21.5363 18.3555H24.4953L20.843 28.8242C20.1398 30.8424 19.5832 32.0924 19.173 32.5742C18.7629 33.0625 17.9426 33.3066 16.7121 33.3066C16.4647 33.3066 16.2661 33.3034 16.1164 33.2969C15.9667 33.2969 15.7421 33.2871 15.4426 33.2676V31.041ZM38.198 14.6055H41.6062L36.7918 23.5898V29H33.784V23.5898L28.8035 14.6055H32.3484L35.3367 20.875L38.198 14.6055ZM47.0758 23.8242C46.9 23.9349 46.721 24.026 46.5387 24.0977C46.3629 24.1628 46.1187 24.2246 45.8062 24.2832L45.1812 24.4004C44.5953 24.5046 44.1754 24.6315 43.9215 24.7812C43.4918 25.0352 43.277 25.429 43.277 25.9629C43.277 26.4382 43.4072 26.7832 43.6676 26.998C43.9345 27.2064 44.2568 27.3105 44.6344 27.3105C45.2333 27.3105 45.7835 27.1348 46.2848 26.7832C46.7926 26.4316 47.0562 25.7904 47.0758 24.8594V23.8242ZM45.3863 22.5254C45.9006 22.4603 46.2685 22.3789 46.4898 22.2812C46.887 22.112 47.0855 21.8483 47.0855 21.4902C47.0855 21.054 46.9325 20.7546 46.6266 20.5918C46.3271 20.4225 45.8844 20.3379 45.2984 20.3379C44.6409 20.3379 44.1754 20.5007 43.902 20.8262C43.7066 21.0671 43.5764 21.3926 43.5113 21.8027H40.8258C40.8844 20.8717 41.1448 20.1068 41.607 19.5078C42.3427 18.5703 43.6057 18.1016 45.3961 18.1016C46.5615 18.1016 47.5966 18.3327 48.5016 18.7949C49.4065 19.2572 49.859 20.1296 49.859 21.4121V26.2949C49.859 26.6335 49.8655 27.0436 49.8785 27.5254C49.898 27.89 49.9534 28.1374 50.0445 28.2676C50.1357 28.3978 50.2724 28.5052 50.4547 28.5898V29H47.4273C47.3427 28.7852 47.2841 28.5833 47.2516 28.3945C47.219 28.2057 47.193 27.9909 47.1734 27.75C46.7893 28.1667 46.3466 28.5215 45.8453 28.8145C45.2464 29.1595 44.5693 29.332 43.8141 29.332C42.8505 29.332 42.053 29.0586 41.4215 28.5117C40.7965 27.9583 40.484 27.1771 40.484 26.168C40.484 24.8594 40.9885 23.9121 41.9977 23.3262C42.551 23.0072 43.3648 22.7793 44.4391 22.6426L45.3863 22.5254ZM53.7074 25.6016C53.766 26.0964 53.893 26.4479 54.0883 26.6562C54.4333 27.0273 55.0714 27.2129 56.0023 27.2129C56.5492 27.2129 56.9822 27.1315 57.3012 26.9688C57.6267 26.806 57.7895 26.5618 57.7895 26.2363C57.7895 25.9238 57.6592 25.6862 57.3988 25.5234C57.1384 25.3607 56.1716 25.0807 54.4984 24.6836C53.294 24.3841 52.4444 24.0098 51.9496 23.5605C51.4548 23.1178 51.2074 22.4798 51.2074 21.6465C51.2074 20.6634 51.5915 19.8203 52.3598 19.1172C53.1345 18.4076 54.2217 18.0527 55.6215 18.0527C56.9496 18.0527 58.0303 18.3197 58.8637 18.8535C59.7035 19.3809 60.1853 20.2956 60.309 21.5977H57.5258C57.4867 21.2396 57.3858 20.9564 57.223 20.748C56.9171 20.3704 56.3962 20.1816 55.6605 20.1816C55.0551 20.1816 54.6221 20.276 54.3617 20.4648C54.1078 20.6536 53.9809 20.875 53.9809 21.1289C53.9809 21.4479 54.1176 21.679 54.391 21.8223C54.6645 21.972 55.6312 22.2292 57.2914 22.5938C58.3982 22.8542 59.2283 23.248 59.7816 23.7754C60.3285 24.3092 60.602 24.9766 60.602 25.7773C60.602 26.832 60.2081 27.6947 59.4203 28.3652C58.6391 29.0293 57.4281 29.3613 55.7875 29.3613C54.1143 29.3613 52.8773 29.0098 52.0766 28.3066C51.2823 27.597 50.8852 26.6953 50.8852 25.6016H53.7074ZM67.7414 18.082C68.399 18.082 68.9947 18.196 69.5285 18.4238C70.0689 18.6517 70.5116 19 70.8566 19.4688C71.1496 19.8659 71.3286 20.276 71.3937 20.6992C71.4589 21.1159 71.4914 21.7995 71.4914 22.75V29H68.6496V22.5254C68.6496 21.9525 68.552 21.4902 68.3566 21.1387C68.1027 20.6439 67.621 20.3965 66.9113 20.3965C66.1757 20.3965 65.6158 20.6439 65.2316 21.1387C64.854 21.627 64.6652 22.3268 64.6652 23.2383V29H61.8918V14.6543H64.6652V19.7422C65.0689 19.1237 65.5344 18.694 66.0617 18.4531C66.5956 18.2057 67.1555 18.082 67.7414 18.082Z" fill="white"/>
<path d="M78.1687 7.68164V8.44629H76.8767V12H75.9685V8.44629H74.6707V7.68164H78.1687ZM81.3213 7.68164H82.6191V12H81.7783V9.0791C81.7783 8.99512 81.7793 8.87793 81.7812 8.72754C81.7832 8.5752 81.7842 8.45801 81.7842 8.37598L80.9668 12H80.0908L79.2793 8.37598C79.2793 8.45801 79.2803 8.5752 79.2822 8.72754C79.2842 8.87793 79.2852 8.99512 79.2852 9.0791V12H78.4443V7.68164H79.7568L80.542 11.0771L81.3213 7.68164Z" fill="white"/>
</svg>
